<svg width="15" height="15" viewBox="0 0 15 15" fill="none" xmlns="http://www.w3.org/2000/svg">
<g clip-path="url(#clip0_1_11292)">
<path d="M2.34375 9.375H3.90625C4.165 9.375 4.375 9.165 4.375 8.90625V7.34375C4.375 7.085 4.165 6.875 3.90625 6.875H2.34375C2.085 6.875 1.875 7.085 1.875 7.34375V8.90625C1.875 9.165 2.085 9.375 2.34375 9.375Z" fill="#1A1A1A"/>
<path d="M2.34375 13.125H3.90625C4.165 13.125 4.375 12.915 4.375 12.6563V11.0938C4.375 10.835 4.165 10.625 3.90625 10.625H2.34375C2.085 10.625 1.875 10.835 1.875 11.0938V12.6563C1.875 12.915 2.085 13.125 2.34375 13.125Z" fill="#1A1A1A"/>
<path d="M6.71875 9.375H8.28125C8.54 9.375 8.75 9.165 8.75 8.90625V7.34375C8.75 7.085 8.54 6.875 8.28125 6.875H6.71875C6.46 6.875 6.25 7.085 6.25 7.34375V8.90625C6.25 9.165 6.46 9.375 6.71875 9.375Z" fill="#1A1A1A"/>
<path d="M6.71875 13.125H8.28125C8.54 13.125 8.75 12.915 8.75 12.6563V11.0938C8.75 10.835 8.54 10.625 8.28125 10.625H6.71875C6.46 10.625 6.25 10.835 6.25 11.0938V12.6563C6.25 12.915 6.46 13.125 6.71875 13.125Z" fill="#1A1A1A"/>
<path d="M11.0938 9.375H12.6563C12.915 9.375 13.125 9.165 13.125 8.90625V7.34375C13.125 7.085 12.915 6.875 12.6563 6.875H11.0938C10.835 6.875 10.625 7.085 10.625 7.34375V8.90625C10.625 9.165 10.835 9.375 11.0938 9.375Z" fill="#1A1A1A"/>
<path d="M13.125 1.875H12.5V0.625C12.5 0.28 12.22 0 11.875 0H11.25C10.905 0 10.625 0.28 10.625 0.625V1.875H4.375V0.625C4.375 0.28 4.095 0 3.75 0H3.125C2.78 0 2.5 0.28 2.5 0.625V1.875H1.875C0.84125 1.875 0 2.71625 0 3.75V13.125C0 14.1587 0.84125 15 1.875 15H13.125C14.1587 15 15 14.1587 15 13.125V3.75C15 2.71625 14.1587 1.875 13.125 1.875ZM13.75 13.125C13.75 13.4694 13.4694 13.75 13.125 13.75H1.875C1.53062 13.75 1.25 13.4694 1.25 13.125V6.275H13.75V13.125Z" fill="#1A1A1A"/>
</g>
<defs>
<clipPath id="clip0_1_11292">
<rect width="15" height="15" fill="white"/>
</clipPath>
</defs>
</svg>
