<svg width="15" height="15" viewBox="0 0 15 15" fill="none" xmlns="http://www.w3.org/2000/svg">
<g clip-path="url(#clip0_1_11303)">
<path d="M14.9989 6.0592L14.8632 1.14339C14.8481 0.593723 14.4056 0.1513 13.8559 0.136087L8.94007 0.000415403C8.6529 -0.00761508 8.38122 0.101051 8.17876 0.303507L0.303024 8.17928C-0.101008 8.58331 -0.101008 9.24069 0.303024 9.64473L5.35454 14.6962C5.75949 15.1012 6.41497 15.1013 6.82002 14.6962L14.6958 6.8205C14.8962 6.62004 15.0067 6.34254 14.9989 6.0592ZM12.748 4.74304C12.0594 5.43163 10.9449 5.4317 10.2563 4.74304C9.56926 4.05605 9.56926 2.93822 10.2563 2.25126C10.9449 1.56263 12.0594 1.5626 12.748 2.25126C13.435 2.93822 13.435 4.05605 12.748 4.74304Z" fill="#1A1A1A"/>
</g>
<defs>
<clipPath id="clip0_1_11303">
<rect width="15" height="15" fill="white"/>
</clipPath>
</defs>
</svg>
