<svg width="15" height="15" viewBox="0 0 15 15" fill="none" xmlns="http://www.w3.org/2000/svg">
<path d="M7.50013 7.50009C8.53556 7.50009 9.41932 7.13375 10.1517 6.40138C10.8841 5.66901 11.2503 4.78525 11.2503 3.74996C11.2503 2.71484 10.8841 1.83104 10.1517 1.0985C9.41908 0.366167 8.53528 0 7.50013 0C6.46497 0 5.58104 0.366167 4.84871 1.0985C4.11624 1.83104 3.75 2.7148 3.75 3.74996C3.75 4.78525 4.11624 5.66901 4.84871 6.40138C5.58125 7.13375 6.46494 7.50009 7.50013 7.50009Z" fill="#1A1A1A"/>
<path d="M14.341 11.46C14.3181 11.1313 14.2725 10.7764 14.2042 10.3955C14.1359 10.0146 14.0495 9.66157 13.9453 9.3359C13.8411 9.01047 13.7011 8.69304 13.5253 8.38376C13.3496 8.07451 13.1478 7.81089 12.9198 7.59269C12.6918 7.37457 12.4135 7.20053 12.085 7.07035C11.756 6.9402 11.3931 6.875 10.9959 6.875C10.9374 6.875 10.8006 6.94498 10.5857 7.08499C10.3711 7.22499 10.1285 7.38127 9.85833 7.55387C9.58818 7.72616 9.23641 7.88255 8.80365 8.02231C8.37068 8.16231 7.93617 8.23233 7.49981 8.23233C7.06363 8.23233 6.62908 8.16231 6.19618 8.02231C5.76331 7.88255 5.41165 7.72616 5.14146 7.55387C4.87131 7.38127 4.62883 7.22502 4.41402 7.08499C4.19911 6.94498 4.06246 6.875 4.00386 6.875C3.60674 6.875 3.24376 6.9402 2.91501 7.07035C2.58619 7.20053 2.3079 7.3747 2.07999 7.59269C1.85215 7.81089 1.6503 8.07451 1.47459 8.38376C1.29888 8.69304 1.15891 9.01061 1.05472 9.3359C0.950566 9.66157 0.864266 10.0146 0.795924 10.3955C0.727513 10.7764 0.681952 11.1311 0.659137 11.46C0.636356 11.7889 0.625 12.1259 0.625 12.4709C0.625 13.252 0.862692 13.8691 1.33791 14.3216C1.81322 14.7739 2.44479 15 3.23254 15H11.7679C12.5556 15 13.1871 14.7739 13.6624 14.3216C14.1379 13.8691 14.3754 13.2521 14.3754 12.4709C14.3754 12.1259 14.364 11.7889 14.341 11.46Z" fill="#1A1A1A"/>
</svg>
