<svg width="28" height="28" viewBox="0 0 28 28" fill="none" xmlns="http://www.w3.org/2000/svg">
<g clip-path="url(#clip0_1_2707)">
<path d="M12.25 12.25V24.5H0V12.075C0 3.675 7.875 2.625 7.875 2.625L8.925 5.075C8.925 5.075 5.425 5.6 4.725 8.4C4.025 10.5 5.425 12.25 5.425 12.25H12.25ZM28 12.25V24.5H15.75V12.075C15.75 3.675 23.625 2.625 23.625 2.625L24.675 5.075C24.675 5.075 21.175 5.6 20.475 8.4C19.775 10.5 21.175 12.25 21.175 12.25H28Z" fill="#5E5E5E"/>
</g>
<defs>
<clipPath id="clip0_1_2707">
<rect width="28" height="28" fill="white" transform="matrix(-1 0 0 -1 28 28)"/>
</clipPath>
</defs>
</svg>
